<?xml version="1.0" encoding="UTF-8"?>
<svg width="200px" height="205px" viewBox="0 0 200 205" version="1.1" xmlns="http://www.w3.org/2000/svg" xmlns:xlink="http://www.w3.org/1999/xlink">
    <!-- Generator: Sketch 42 (36781) - http://www.bohemiancoding.com/sketch -->
    <title>Group</title>
    <desc>Created with Sketch.</desc>
    <defs></defs>
    <g id="Page-1" stroke="none" stroke-width="1" fill="none" fill-rule="evenodd">
        <g id="Group" fill-rule="nonzero">
            <polygon id="Shape" fill="#000000" points="91.3938419 92.1714915 86.7386585 92.1714915 86.7386585 51.7710056 72.2619082 38.9144892 75.3508617 35.4269911 91.3938419 49.6712411"></polygon>
            <polygon id="Shape" fill="#000000" points="114.02804 92.1206322 113.912023 51.0444435 129.962254 36.7965606 133.043956 40.2840587 118.574457 53.1369424 118.683223 92.1061009"></polygon>
            <g transform="translate(56.998417, 20.786765)">
                <ellipse id="Oval" fill="#EA3C3B" cx="12.9504012" cy="12.3224933" rx="9.79256261" ry="9.81222124"></ellipse>
                <path d="M12.9467757,24.4742445 C6.26854526,24.4742445 0.830246885,19.0250287 0.830246885,12.3224933 C0.830246885,5.63085632 6.26854526,0.181640526 12.9467757,0.181640526 C19.6322571,0.181640526 25.074181,5.63085632 25.074181,12.3224933 C25.074181,19.0250287 19.6322571,24.4742445 12.9467757,24.4742445 Z M12.9467757,4.84253643 C8.83179656,4.84253643 5.48180476,8.19925336 5.48180476,12.3224933 C5.48180476,16.4529989 8.83179656,19.8097158 12.9467757,19.8097158 C17.0690058,19.8097158 20.4189976,16.4529989 20.4189976,12.3224933 C20.4189976,8.19925336 17.0690058,4.84253643 12.9467757,4.84253643 Z" id="Shape" fill="#000000"></path>
            </g>
            <g transform="translate(124.278195, 22.806962)">
                <ellipse id="Oval" fill="#EA3C3B" cx="12.380417" cy="12.896123" rx="9.79618814" ry="9.81585405"></ellipse>
                <path d="M12.380417,25.0442414 C5.69493555,25.0442414 0.260262711,19.5950256 0.260262711,12.896123 C0.260262711,6.20085315 5.69493555,0.751637359 12.380417,0.751637359 C19.0658985,0.751637359 24.5041969,6.20085315 24.5041969,12.896123 C24.5005713,19.5950256 19.062273,25.0442414 12.380417,25.0442414 Z M12.380417,5.41253327 C8.26181239,5.41253327 4.90819505,8.77288301 4.90819505,12.896123 C4.90819505,17.0266285 8.26181239,20.3833455 12.380417,20.3833455 C16.4990217,20.3833455 19.8490135,17.0266285 19.8490135,12.896123 C19.8453879,8.77288301 16.4953961,5.41253327 12.380417,5.41253327 Z" id="Shape" fill="#000000"></path>
            </g>
            <polygon id="Shape" fill="#000000" points="100.479426 99.2046127 95.8314934 99.2046127 95.8314934 36.0155064 108.586116 36.0155064 108.586116 20.6995772 113.241299 20.6995772 113.241299 40.6764023 100.479426 40.6764023"></polygon>
            <g transform="translate(100.504804, 0.000000)">
                <ellipse id="Oval" fill="#FFC252" cx="13.0301629" cy="13.1179016" rx="9.79618814" ry="9.81585405"></ellipse>
                <path d="M13.0337884,25.26602 C6.34468144,25.26602 0.910008595,19.8168042 0.910008595,13.1179016 C0.910008595,6.4226318 6.34468144,0.973416011 13.0337884,0.973416011 C19.7192699,0.973416011 25.1539427,6.4226318 25.1539427,13.1179016 C25.1539427,19.8131714 19.7156444,25.26602 13.0337884,25.26602 Z M13.0337884,5.63431192 C8.91155827,5.63431192 5.56156647,8.99466166 5.56156647,13.1179016 C5.56156647,17.2447744 8.91155827,20.6051241 13.0337884,20.6051241 C17.1523931,20.6051241 20.5023849,17.2484072 20.5023849,13.1179016 C20.4987593,8.99102885 17.1487675,5.63431192 13.0337884,5.63431192 Z" id="Shape" fill="#000000"></path>
            </g>
            <rect id="Rectangle-path" fill="#000000" x="81.735424" y="88.0155563" width="41.9147783" height="4.66089591"></rect>
            <polygon id="Shape" fill="#000000" points="156.105967 91.7827808 113.68724 91.7827808 113.68724 87.1218849 154.010409 87.1218849 166.837542 72.6197053 170.318053 75.711227"></polygon>
            <polygon id="Shape" fill="#000000" points="165.470717 133.523774 152.647209 119.025227 113.748874 119.130578 113.734372 114.473315 154.73189 114.353433 168.954853 130.435885"></polygon>
            <polygon id="Shape" fill="#000000" points="182.920404 115.777494 162.979976 115.777494 162.979976 102.997267 104.569026 102.997267 104.569026 98.336371 167.63516 98.336371 167.63516 111.116598 182.920404 111.116598"></polygon>
            <rect id="Rectangle-path" fill="#000000" x="113.179665" y="84.3100895" width="4.65518341" height="41.9952897"></rect>
            <polygon id="Shape" fill="#000000" points="136.140161 169.535825 120.093555 155.291574 120.093555 112.791324 124.748739 112.791324 124.748739 153.19181 139.225489 166.044694"></polygon>
            <polygon id="Shape" fill="#000000" points="79.3316961 168.166255 76.2499937 164.675124 90.726744 151.825873 90.6107269 112.856715 95.2659104 112.842183 95.3819274 153.918372"></polygon>
            <polygon id="Shape" fill="#000000" points="98.6159021 186.366636 93.9607187 186.366636 93.9607187 166.386178 106.715341 166.386178 106.715341 107.854335 111.366899 107.854335 111.366899 171.047074 98.6159021 171.047074"></polygon>
            <rect id="Rectangle-path" fill="#000000" x="81.2713559" y="112.286363" width="41.9075273" height="4.66089591"></rect>
            <polygon id="Shape" fill="#000000" points="39.9257861 138.25006 36.4380241 135.158539 50.6573616 119.083352 93.0724633 119.083352 93.0724633 123.744248 52.7492937 123.744248"></polygon>
            <polygon id="Shape" fill="#000000" points="52.0241872 96.5163329 37.8048497 80.4375135 41.2926118 77.3459918 54.1124938 91.8481714 93.0072038 91.7355543 93.0217059 96.3964502"></polygon>
            <polygon id="Shape" fill="#000000" points="97.9995617 112.533395 34.9298027 112.533395 34.9298027 99.7531671 19.6445587 99.7531671 19.6445587 95.0922712 39.5813605 95.0922712 39.5813605 107.872499 97.9995617 107.872499"></polygon>
            <rect id="Rectangle-path" fill="#000000" x="88.9212289" y="80.1832168" width="4.65155788" height="41.9952897"></rect>
            <g transform="translate(66.269679, 65.390590)" id="Shape">
                <path d="M73.2132226,54.0306138 C73.2132226,63.9336553 65.1971708,71.9657994 55.3139699,71.9657994 L20.2623241,71.9657994 C10.3754977,71.9657994 2.36307142,63.9336553 2.36307142,54.0306138 L2.36307142,20.4016867 C2.36307142,10.4950124 10.3754977,2.46650114 20.2623241,2.46650114 L55.3139699,2.46650114 C65.1971708,2.46650114 73.2132226,10.4950124 73.2132226,20.4016867 L73.2132226,54.0306138 Z" fill="#FFFFFF"></path>
                <path d="M55.3139699,74.2944309 L20.2623241,74.2944309 C9.11018693,74.2944309 0.0391052434,65.205139 0.0391052434,54.0306138 L0.0391052434,20.4016867 C0.0391052434,9.22352872 9.11018693,0.134236779 20.2623241,0.134236779 L55.3139699,0.134236779 C66.4661071,0.134236779 75.5371888,9.22352872 75.5371888,20.4016867 L75.5371888,54.0306138 C75.5408143,65.2015062 66.4697327,74.2944309 55.3139699,74.2944309 Z M20.2623241,4.7987655 C11.6770638,4.7987655 4.69428865,11.7991914 4.69428865,20.4016867 L4.69428865,54.0306138 C4.69428865,62.6331091 11.6770638,69.6299022 20.2623241,69.6299022 L55.3139699,69.6299022 C63.8992303,69.6299022 70.8892565,62.6294763 70.8892565,54.0306138 L70.8892565,20.4016867 C70.8892565,11.7991914 63.8992303,4.7987655 55.3139699,4.7987655 L20.2623241,4.7987655 Z" fill="#000000"></path>
            </g>
            <path d="M129.077624,114.480581 C129.077624,121.473741 123.418168,127.144558 116.435393,127.144558 L91.68751,127.144558 C84.7047349,127.144558 79.0489046,121.473741 79.0489046,114.480581 L79.0489046,90.7328986 C79.0489046,83.7361055 84.7083604,78.068921 91.68751,78.068921 L116.435393,78.068921 C123.421794,78.068921 129.077624,83.7397383 129.077624,90.7328986 L129.077624,114.480581 Z" id="Shape" fill="#57DCF1"></path>
            <g transform="translate(156.907985, 60.145166)">
                <ellipse id="Oval" fill="#FFC252" cx="12.5326894" cy="12.489071" rx="9.79618814" ry="9.81585405"></ellipse>
                <path d="M12.5363149,24.6371894 C5.84720791,24.6371894 0.416160597,19.1879736 0.416160597,12.489071 C0.416160597,5.79380116 5.84720791,0.344585369 12.5363149,0.344585369 C19.2217964,0.344585369 24.6528437,5.79380116 24.6528437,12.489071 C24.6492182,19.1879736 19.2181708,24.6371894 12.5363149,24.6371894 Z M12.5363149,5.00548128 C8.41771027,5.00548128 5.06409294,8.36583102 5.06409294,12.4927038 C5.06409294,16.6195765 8.41771027,19.9762935 12.5363149,19.9762935 C16.6549195,19.9762935 20.0049113,16.6195765 20.0049113,12.4927038 C20.0012858,8.36583102 16.651294,5.00548128 12.5363149,5.00548128 Z" id="Shape" fill="#000000"></path>
            </g>
            <g transform="translate(83.387242, 179.017814)">
                <ellipse id="Oval" fill="#FFC252" cx="12.5530176" cy="12.8888573" rx="9.79618814" ry="9.81585405"></ellipse>
                <path d="M12.5530176,25.0333429 C5.86753614,25.0333429 0.432863298,19.5841271 0.432863298,12.8852245 C0.432863298,6.18632191 5.86753614,0.737106117 12.5530176,0.737106117 C19.2384991,0.737106117 24.6767975,6.18632191 24.6767975,12.8852245 C24.6767975,19.5841271 19.2384991,25.0333429 12.5530176,25.0333429 Z M12.5530176,5.40163484 C8.43441297,5.40163484 5.08079564,8.75835176 5.08079564,12.8888573 C5.08079564,17.0120973 8.43441297,20.372447 12.5530176,20.372447 C16.6716222,20.372447 20.021614,17.0120973 20.021614,12.8888573 C20.021614,8.75835176 16.6716222,5.40163484 12.5530176,5.40163484 Z" id="Shape" fill="#000000"></path>
            </g>
            <g transform="translate(155.897887, 123.515558)">
                <ellipse id="Oval" fill="#FFC252" cx="12.8466857" cy="12.841808" rx="9.79618814" ry="9.81585405"></ellipse>
                <path d="M12.8466857,24.9862936 C6.16120425,24.9862936 0.719280346,19.5370778 0.719280346,12.841808 C0.719280346,6.14290539 6.16120425,0.693689601 12.8466857,0.693689601 C19.5285417,0.693689601 24.9704656,6.14290539 24.9704656,12.841808 C24.9704656,19.5370778 19.5285417,24.9862936 12.8466857,24.9862936 Z M12.8466857,5.35458551 C8.72445555,5.35458551 5.37446375,8.71130244 5.37446375,12.841808 C5.37446375,16.965048 8.72445555,20.3253977 12.8466857,20.3253977 C16.9616648,20.3253977 20.3189077,16.965048 20.3189077,12.841808 C20.3189077,8.71493525 16.9616648,5.35458551 12.8466857,5.35458551 Z" id="Shape" fill="#000000"></path>
            </g>
            <g transform="translate(21.753193, 129.168566)">
                <ellipse id="Oval" fill="#FFC252" cx="12.5276389" cy="12.4454772" rx="9.79618814" ry="9.81585405"></ellipse>
                <path d="M12.5240134,24.5935956 C5.84215741,24.5935956 0.400233508,19.1443799 0.400233508,12.4491101 C0.400233508,5.75020744 5.84215741,0.300991643 12.5240134,0.300991643 C19.2094948,0.300991643 24.6514187,5.75020744 24.6514187,12.4491101 C24.6514187,19.1443799 19.2094948,24.5935956 12.5240134,24.5935956 Z M12.5240134,4.96188755 C8.40540871,4.96188755 5.05541692,8.31860448 5.05541692,12.4454772 C5.05541692,16.57235 8.40540871,19.9326997 12.5240134,19.9326997 C16.642618,19.9326997 19.9962353,16.57235 19.9962353,12.4454772 C19.9962353,8.31860448 16.642618,4.96188755 12.5240134,4.96188755 Z" id="Shape" fill="#000000"></path>
            </g>
            <g transform="translate(23.773391, 61.757779)">
                <ellipse id="Oval" fill="#FFC252" cx="12.6029994" cy="12.6347378" rx="9.79618814" ry="9.81585405"></ellipse>
                <path d="M12.6029994,24.7828562 C5.91751798,24.7828562 0.482845138,19.3336404 0.482845138,12.6347378 C0.482845138,5.939468 5.91751798,0.490252211 12.6029994,0.490252211 C19.2884809,0.490252211 24.7267793,5.939468 24.7267793,12.6347378 C24.7231538,19.3336404 19.2848554,24.7828562 12.6029994,24.7828562 Z M12.6029994,5.15114812 C8.48439481,5.15114812 5.13440301,8.50786505 5.13440301,12.6347378 C5.13440301,16.7652434 8.48439481,20.1219603 12.6029994,20.1219603 C16.7252296,20.1219603 20.0715959,16.7652434 20.0715959,12.6347378 C20.0679704,8.50786505 16.7216041,5.15114812 12.6029994,5.15114812 Z" id="Shape" fill="#000000"></path>
            </g>
            <g transform="translate(174.025548, 99.095983)">
                <ellipse id="Oval" fill="#EA3C3B" cx="12.9445751" cy="12.9324511" rx="9.79618814" ry="9.81585405"></ellipse>
                <path d="M12.9482006,25.0769367 C6.26271916,25.0769367 0.824420781,19.6277209 0.824420781,12.9324511 C0.824420781,6.23718126 6.26271916,0.787965464 12.9482006,0.787965464 C19.6336821,0.787965464 25.0719805,6.23718126 25.0719805,12.9324511 C25.0719805,19.6277209 19.6300566,25.0769367 12.9482006,25.0769367 Z M12.9482006,5.45249418 C8.82959599,5.45249418 5.47960419,8.8055783 5.47960419,12.9360839 C5.47960419,17.0629566 8.82959599,20.4196736 12.9482006,20.4196736 C17.0668053,20.4196736 20.4204226,17.0629566 20.4204226,12.9360839 C20.4167971,8.8055783 17.0631797,5.45249418 12.9482006,5.45249418 Z" id="Shape" fill="#000000"></path>
            </g>
            <g transform="translate(129.509062, 159.843663)">
                <ellipse id="Oval" fill="#EA3C3B" cx="12.7401203" cy="12.4022379" rx="9.79618814" ry="9.81585405"></ellipse>
                <path d="M12.7437459,24.5503563 C6.05826439,24.5503563 0.619966015,19.1011405 0.619966015,12.4022379 C0.619966015,5.70696813 6.05826439,0.261385148 12.7437459,0.261385148 C19.4256018,0.261385148 24.8602746,5.71060094 24.8602746,12.4022379 C24.8566491,19.1011405 19.4219763,24.5503563 12.7437459,24.5503563 Z M12.7437459,4.92228106 C8.62151569,4.92228106 5.27152389,8.27899798 5.27152389,12.4022379 C5.27152389,16.5327435 8.62151569,19.8894604 12.7437459,19.8894604 C16.8623505,19.8894604 20.2087168,16.5327435 20.2087168,12.4022379 C20.2050912,8.27899798 16.858725,4.92228106 12.7437459,4.92228106 Z" id="Shape" fill="#000000"></path>
            </g>
            <g transform="translate(60.028713, 157.220951)">
                <ellipse id="Oval" fill="#EA3C3B" cx="12.3347101" cy="12.9251854" rx="9.79618814" ry="9.81585405"></ellipse>
                <path d="M12.3383356,25.0733038 C5.64922859,25.0733038 0.214555752,19.6240881 0.214555752,12.9288183 C0.214555752,6.22991564 5.64922859,0.780699843 12.3383356,0.780699843 C19.0201915,0.780699843 24.4584899,6.22991564 24.4584899,12.9288183 C24.4584899,19.6240881 19.0201915,25.0733038 12.3383356,25.0733038 Z M12.3383356,5.44159575 C8.21610543,5.44159575 4.8624881,8.80194549 4.8624881,12.9288183 C4.8624881,17.055691 8.21610543,20.4160407 12.3383356,20.4160407 C16.4569402,20.4160407 19.806932,17.055691 19.806932,12.9288183 C19.806932,8.80194549 16.4569402,5.44159575 12.3383356,5.44159575 Z" id="Shape" fill="#000000"></path>
            </g>
            <g transform="translate(0.000000, 86.177354)">
                <ellipse id="Oval" fill="#EA3C3B" cx="12.6182772" cy="13.0744851" rx="9.79618814" ry="9.81585405"></ellipse>
                <path d="M12.6146517,25.2189707 C5.93279572,25.2189707 0.498122879,19.7697549 0.498122879,13.0744851 C0.498122879,6.37558248 5.93279572,0.926366685 12.6146517,0.926366685 C19.3037587,0.926366685 24.7384315,6.37558248 24.7384315,13.0744851 C24.7384315,19.7697549 19.3037587,25.2189707 12.6146517,25.2189707 Z M12.6146517,5.5908954 C8.49967255,5.5908954 5.14968075,8.94761233 5.14968075,13.0781179 C5.14968075,17.2013579 8.49967255,20.5653404 12.6146517,20.5653404 C16.7332563,20.5653404 20.0868736,17.2049907 20.0868736,13.0781179 C20.0832481,8.94761233 16.7332563,5.5908954 12.6146517,5.5908954 Z" id="Shape" fill="#000000"></path>
            </g>
        </g>
    </g>
</svg>